<svg width="38" height="44" viewBox="0 0 38 44" fill="none" xmlns="http://www.w3.org/2000/svg">
<g clip-path="url(#clip0_42_89)">
<path d="M21.5868 43.174C15.8207 43.174 10.4004 40.9285 6.32243 36.8516C2.24446 32.7747 0 27.353 0 21.5872C0 15.8214 2.24552 10.4 6.32243 6.32278C10.3993 2.24552 15.8207 0 21.5868 0C27.353 0 32.7757 2.24587 36.8512 6.32313C37.2172 6.68703 37.5078 7.11958 37.7063 7.59599C37.9048 8.07239 38.0074 8.58329 38.0081 9.0994C38.0088 9.61551 37.9077 10.1267 37.7105 10.6036C37.5133 11.0806 37.2239 11.514 36.8589 11.8789C36.494 12.2438 36.0606 12.5331 35.5836 12.7302C35.1066 12.9274 34.5954 13.0284 34.0793 13.0277C33.5632 13.0269 33.0523 12.9242 32.5759 12.7257C32.0996 12.5271 31.6671 12.2365 31.3032 11.8704C29.3814 9.94875 26.933 8.64009 24.2675 8.10993C21.6019 7.57978 18.8391 7.85194 16.3282 8.892C13.8174 9.93206 11.6713 11.6933 10.1615 13.953C8.65159 16.2127 7.8457 18.8694 7.8457 21.5872C7.8457 24.3049 8.65159 26.9616 10.1615 29.2213C11.6713 31.481 13.8174 33.2423 16.3282 34.2823C18.8391 35.3224 21.6019 35.5946 24.2675 35.0644C26.933 34.5343 29.3814 33.2256 31.3032 31.3039C31.6671 30.9379 32.0996 30.6472 32.5759 30.4487C33.0523 30.2501 33.5632 30.1475 34.0793 30.1467C34.5954 30.1459 35.1066 30.247 35.5836 30.4441C36.0606 30.6412 36.494 30.9305 36.8589 31.2955C37.2239 31.6604 37.5133 32.0937 37.7105 32.5707C37.9077 33.0476 38.0088 33.5588 38.0081 34.0749C38.0074 34.5911 37.9048 35.1019 37.7063 35.5784C37.5078 36.0548 37.2172 36.4873 36.8512 36.8512C32.7739 40.9285 27.3533 43.174 21.5868 43.174Z" fill="#7BB66D"/>
<path d="M21.3898 13.3746C16.7897 13.4031 13.0597 17.1331 13.0597 21.7258C13.0597 26.3537 16.8256 30.0833 21.4183 30.0833C25.5617 30.0833 34.9037 23.2166 36.9297 21.6973C34.9037 20.1783 25.5332 13.3746 21.3898 13.3746ZM21.3113 24.5987C20.7431 24.5973 20.1881 24.4275 19.7164 24.1108C19.2446 23.7942 18.8773 23.3448 18.6609 22.8195C18.4444 22.2941 18.3885 21.7164 18.5002 21.1593C18.6119 20.6022 18.8862 20.0908 19.2884 19.6895C19.6907 19.2882 20.2028 19.0152 20.7602 18.9048C21.3176 18.7945 21.8951 18.8518 22.4199 19.0696C22.9447 19.2873 23.3932 19.6557 23.7087 20.1283C24.0242 20.6008 24.1926 21.1562 24.1926 21.7244C24.1928 22.1025 24.1183 22.477 23.9735 22.8263C23.8287 23.1757 23.6163 23.493 23.3487 23.7601C23.081 24.0272 22.7633 24.2389 22.4137 24.3831C22.0641 24.5272 21.6895 24.6009 21.3113 24.6001V24.5987Z" fill="#1A321E"/>
</g>
<defs>
<clipPath id="clip0_42_89">
<rect width="38" height="43.174" fill="white"/>
</clipPath>
</defs>
</svg>
